<?xml version="1.0" encoding="utf-8"?>
<!-- Generator: Adobe Illustrator 25.0.1, SVG Export Plug-In . SVG Version: 6.00 Build 0)  -->
<svg version="1.1" id="Layer_1" xmlns="http://www.w3.org/2000/svg" xmlns:xlink="http://www.w3.org/1999/xlink" x="0px" y="0px"
	 viewBox="0 0 169.01 200" style="enable-background:new 0 0 169.01 200;" xml:space="preserve">
<style type="text/css">
	.st0{fill:#FFFFFF;stroke:#000000;stroke-width:1.9703;stroke-miterlimit:10;}
	.st1{fill:#FFCE00;stroke:#000000;stroke-width:1.9703;stroke-miterlimit:10;}
	.st2{fill:#FF8B00;stroke:#000000;stroke-width:1.9703;stroke-miterlimit:10;}
	.st3{fill:#FFFFFF;}
	
		.st4{fill:none;stroke:#000000;stroke-width:1.9703;stroke-linecap:round;stroke-miterlimit:10;stroke-dasharray:5.9121,5.9121,0,0,0,0;}
	.st5{fill:#FF8B00;}
	.st6{fill:none;stroke:#000000;stroke-width:1.9703;stroke-linecap:round;stroke-miterlimit:10;}
	.st7{opacity:0.9;}
	.st8{fill:none;stroke:#CCC8B9;stroke-width:0.9852;stroke-miterlimit:10;}
	.st9{opacity:0.8;}
	.st10{fill:none;stroke:#CCC8B9;stroke-width:0.564;stroke-miterlimit:10;}
	.st11{fill:none;stroke:#CCC8B9;stroke-width:0.6415;stroke-miterlimit:10;}
	.st12{opacity:0.8;fill:none;stroke:#CCC8B9;stroke-width:0.7614;stroke-miterlimit:10;}
	.st13{fill:#F6F5F3;}
</style>
<g>
	<path class="st0" d="M120.85,161.2h-72.9c-1.55,0-2.81-1.26-2.81-2.81l-12.24-71.5c0-1.55,1.26-2.81,2.81-2.81h97.39
		c1.55,0,2.81,1.26,2.81,2.81l-12.24,71.5C123.66,159.94,122.4,161.2,120.85,161.2z"/>
	<path class="st1" d="M48.32,90.05L48.32,90.05c-1.88-1.09-2.53-3.5-1.44-5.38l21.96-38.03c1.09-1.88,3.5-2.53,5.38-1.44l0,0
		c1.88,1.09,2.53,3.5,1.44,5.38L53.71,88.61C52.62,90.49,50.21,91.14,48.32,90.05z"/>
	<path class="st2" d="M122.72,88.61L122.72,88.61c-1.09,1.88-3.5,2.53-5.38,1.44L79.31,68.1c-1.88-1.09-2.53-3.5-1.44-5.38l0,0
		c1.09-1.88,3.5-2.53,5.38-1.44l38.03,21.96C123.16,84.31,123.8,86.72,122.72,88.61z"/>
	<g>
		<circle class="st3" cx="38.52" cy="123.43" r="22.59"/>
		
			<ellipse transform="matrix(0.6154 -0.7882 0.7882 0.6154 -82.4779 77.8314)" class="st4" cx="38.52" cy="123.43" rx="22.59" ry="22.59"/>
	</g>
	<g>
		<g>
			<path class="st5" d="M44.1,118.74c0,5.45-2.14,8.87-6.18,8.87c-3.91,0-6-3.55-6.03-8.71c0-5.27,2.24-8.82,6.21-8.82
				C42.2,110.08,44.1,113.73,44.1,118.74z M35.13,118.89c-0.03,4.12,1.12,6.26,2.89,6.26c1.88,0,2.87-2.29,2.87-6.36
				c0-3.94-0.94-6.26-2.87-6.26C36.3,112.53,35.1,114.64,35.13,118.89z"/>
		</g>
		<g>
			<path d="M30.22,131.57c0,0.3-0.22,0.54-0.58,0.54c-0.34,0-0.56-0.24-0.56-0.54c0-0.31,0.23-0.55,0.57-0.55
				C30,131.02,30.21,131.26,30.22,131.57z M29.14,136.71v-4.01h1.02v4.01H29.14z"/>
			<path d="M32.41,131.55v1.15h0.96v0.76h-0.96v1.77c0,0.49,0.13,0.74,0.52,0.74c0.17,0,0.3-0.02,0.4-0.05l0.02,0.77
				c-0.15,0.06-0.41,0.1-0.73,0.1c-0.37,0-0.68-0.12-0.87-0.33c-0.21-0.23-0.31-0.59-0.31-1.12v-1.89h-0.58v-0.76h0.58v-0.91
				L32.41,131.55z"/>
			<path d="M34.81,134.98c0.02,0.73,0.59,1.04,1.24,1.04c0.47,0,0.81-0.07,1.11-0.18l0.15,0.7c-0.35,0.14-0.82,0.25-1.4,0.25
				c-1.3,0-2.07-0.8-2.07-2.03c0-1.11,0.68-2.16,1.96-2.16c1.3,0,1.73,1.07,1.73,1.95c0,0.19-0.02,0.34-0.03,0.43H34.81z
				 M36.58,134.28c0.01-0.37-0.16-0.98-0.83-0.98c-0.63,0-0.89,0.57-0.93,0.98H36.58z"/>
			<path d="M38.35,133.89c0-0.46-0.01-0.85-0.03-1.2h0.87l0.04,0.59h0.02c0.2-0.31,0.56-0.68,1.24-0.68c0.53,0,0.94,0.3,1.11,0.74
				h0.02c0.14-0.22,0.31-0.39,0.49-0.5c0.22-0.16,0.48-0.24,0.81-0.24c0.67,0,1.34,0.45,1.34,1.74v2.37h-0.99v-2.22
				c0-0.67-0.23-1.06-0.72-1.06c-0.35,0-0.6,0.25-0.71,0.54c-0.02,0.1-0.05,0.22-0.05,0.34v2.41h-0.99v-2.32
				c0-0.56-0.22-0.96-0.69-0.96c-0.38,0-0.64,0.3-0.73,0.58c-0.04,0.1-0.06,0.21-0.06,0.33v2.37h-0.99V133.89z"/>
			<path d="M45.3,135.78c0.23,0.14,0.67,0.29,1.03,0.29c0.45,0,0.64-0.18,0.64-0.45c0-0.27-0.17-0.41-0.66-0.59
				c-0.78-0.27-1.11-0.7-1.1-1.17c0-0.71,0.59-1.26,1.52-1.26c0.45,0,0.83,0.12,1.06,0.24l-0.2,0.72c-0.17-0.1-0.49-0.23-0.85-0.23
				c-0.36,0-0.56,0.17-0.56,0.42c0,0.26,0.19,0.38,0.7,0.56c0.73,0.26,1.06,0.64,1.07,1.23c0,0.73-0.57,1.25-1.63,1.25
				c-0.49,0-0.92-0.12-1.22-0.28L45.3,135.78z"/>
		</g>
	</g>
	<g>
		<line class="st6" x1="10.07" y1="97.02" x2="12.18" y2="101.52"/>
		<line class="st6" x1="0.92" y1="100.68" x2="8.24" y2="105.61"/>
		<line class="st6" x1="0.92" y1="110.39" x2="6.97" y2="110.39"/>
	</g>
	<g>
		<path class="st6" d="M80.35,124.85c0,0,2.78-3.59,6.37-1.37"/>
		<circle cx="71.41" cy="114.01" r="2.53"/>
		<circle cx="97.38" cy="114.01" r="2.53"/>
	</g>
</g>
<g>
	<g class="st7">
		<polyline class="st8" points="13.35,47.48 13.35,52.41 8.43,52.41 		"/>
		<polyline class="st8" points="13.35,58.99 13.35,54.06 8.43,54.06 		"/>
		<polyline class="st8" points="15.02,47.48 15.02,52.41 19.95,52.41 		"/>
		<polyline class="st8" points="15.02,58.99 15.02,54.06 19.95,54.06 		"/>
	</g>
	<g class="st9">
		<polyline class="st8" points="110.62,2.58 110.62,7.51 105.69,7.51 		"/>
		<polyline class="st8" points="110.62,14.09 110.62,9.16 105.69,9.16 		"/>
		<polyline class="st8" points="112.29,2.58 112.29,7.51 117.22,7.51 		"/>
		<polyline class="st8" points="112.29,14.09 112.29,9.16 117.22,9.16 		"/>
	</g>
	<g>
		<polyline class="st8" points="162.41,106.78 162.41,111.7 157.49,111.7 		"/>
		<polyline class="st8" points="162.41,118.28 162.41,113.36 157.49,113.36 		"/>
		<polyline class="st8" points="164.08,106.78 164.08,111.7 169.01,111.7 		"/>
		<polyline class="st8" points="164.08,118.28 164.08,113.36 169.01,113.36 		"/>
	</g>
	<g>
		<polyline class="st10" points="48.77,183.54 48.77,186.36 45.95,186.36 		"/>
		<polyline class="st10" points="48.77,190.12 48.77,187.3 45.95,187.3 		"/>
		<polyline class="st10" points="49.73,183.54 49.73,186.36 52.55,186.36 		"/>
		<polyline class="st10" points="49.73,190.12 49.73,187.3 52.55,187.3 		"/>
	</g>
	<circle class="st8" cx="103.89" cy="37.39" r="4.27"/>
	<circle class="st8" cx="13.35" cy="192.98" r="4.27"/>
	<circle class="st11" cx="40.83" cy="30.35" r="2.78"/>
	<circle class="st12" cx="155.05" cy="67.06" r="3.3"/>
</g>
<ellipse class="st13" cx="70.41" cy="172.74" rx="48.77" ry="2.96"/>
</svg>
